<mxfile host="app.diagrams.net" agent="Mozilla/5.0 (Windows NT 10.0; Win64; x64) AppleWebKit/537.36 (KHTML, like Gecko) Chrome/128.0.0.0 Safari/537.36 OPR/114.0.0.0" version="24.8.6">
  <diagram name="Página-1" id="NGqmcVMcX6U8OVjRvdfX">
    <mxGraphModel dx="2033" dy="796" grid="1" gridSize="10" guides="1" tooltips="1" connect="1" arrows="1" fold="1" page="1" pageScale="1" pageWidth="827" pageHeight="1169" math="0" shadow="0">
      <root>
        <mxCell id="0" />
        <mxCell id="1" parent="0" />
        <mxCell id="aeV841RNkO-CWpU37b-w-52" style="edgeStyle=orthogonalEdgeStyle;rounded=0;orthogonalLoop=1;jettySize=auto;html=1;" edge="1" parent="1" source="aeV841RNkO-CWpU37b-w-1" target="aeV841RNkO-CWpU37b-w-6">
          <mxGeometry relative="1" as="geometry" />
        </mxCell>
        <mxCell id="aeV841RNkO-CWpU37b-w-71" style="edgeStyle=orthogonalEdgeStyle;rounded=0;orthogonalLoop=1;jettySize=auto;html=1;entryX=0.5;entryY=1;entryDx=0;entryDy=0;" edge="1" parent="1" source="aeV841RNkO-CWpU37b-w-1" target="aeV841RNkO-CWpU37b-w-70">
          <mxGeometry relative="1" as="geometry" />
        </mxCell>
        <mxCell id="aeV841RNkO-CWpU37b-w-83" style="edgeStyle=orthogonalEdgeStyle;rounded=0;orthogonalLoop=1;jettySize=auto;html=1;entryX=0.5;entryY=1;entryDx=0;entryDy=0;" edge="1" parent="1" source="aeV841RNkO-CWpU37b-w-1" target="aeV841RNkO-CWpU37b-w-27">
          <mxGeometry relative="1" as="geometry">
            <Array as="points">
              <mxPoint x="460" y="480" />
              <mxPoint x="150" y="480" />
            </Array>
          </mxGeometry>
        </mxCell>
        <mxCell id="aeV841RNkO-CWpU37b-w-1" value="Sistema" style="whiteSpace=wrap;html=1;align=center;" vertex="1" parent="1">
          <mxGeometry x="430" y="390" width="100" height="40" as="geometry" />
        </mxCell>
        <mxCell id="aeV841RNkO-CWpU37b-w-3" value="Finaliza o pedido" style="whiteSpace=wrap;html=1;align=center;" vertex="1" parent="1">
          <mxGeometry x="100" y="710" width="100" height="40" as="geometry" />
        </mxCell>
        <mxCell id="aeV841RNkO-CWpU37b-w-56" style="edgeStyle=orthogonalEdgeStyle;rounded=0;orthogonalLoop=1;jettySize=auto;html=1;entryX=0;entryY=0.5;entryDx=0;entryDy=0;" edge="1" parent="1" source="aeV841RNkO-CWpU37b-w-6" target="aeV841RNkO-CWpU37b-w-53">
          <mxGeometry relative="1" as="geometry" />
        </mxCell>
        <mxCell id="aeV841RNkO-CWpU37b-w-68" style="edgeStyle=orthogonalEdgeStyle;rounded=0;orthogonalLoop=1;jettySize=auto;html=1;entryX=0.5;entryY=1;entryDx=0;entryDy=0;" edge="1" parent="1" source="aeV841RNkO-CWpU37b-w-6" target="aeV841RNkO-CWpU37b-w-1">
          <mxGeometry relative="1" as="geometry">
            <Array as="points">
              <mxPoint x="820" y="470" />
              <mxPoint x="480" y="470" />
            </Array>
          </mxGeometry>
        </mxCell>
        <mxCell id="aeV841RNkO-CWpU37b-w-6" value="Equipe" style="whiteSpace=wrap;html=1;align=center;" vertex="1" parent="1">
          <mxGeometry x="770" y="390" width="100" height="40" as="geometry" />
        </mxCell>
        <mxCell id="aeV841RNkO-CWpU37b-w-80" style="edgeStyle=orthogonalEdgeStyle;rounded=0;orthogonalLoop=1;jettySize=auto;html=1;entryX=0.5;entryY=0;entryDx=0;entryDy=0;" edge="1" parent="1" source="aeV841RNkO-CWpU37b-w-7" target="aeV841RNkO-CWpU37b-w-70">
          <mxGeometry relative="1" as="geometry">
            <Array as="points">
              <mxPoint x="480" y="140" />
            </Array>
          </mxGeometry>
        </mxCell>
        <mxCell id="aeV841RNkO-CWpU37b-w-7" value="estimativa de entrega" style="ellipse;whiteSpace=wrap;html=1;align=center;" vertex="1" parent="1">
          <mxGeometry x="518" y="120" width="100" height="40" as="geometry" />
        </mxCell>
        <mxCell id="aeV841RNkO-CWpU37b-w-76" style="edgeStyle=orthogonalEdgeStyle;rounded=0;orthogonalLoop=1;jettySize=auto;html=1;entryX=0.5;entryY=0;entryDx=0;entryDy=0;" edge="1" parent="1" source="aeV841RNkO-CWpU37b-w-8" target="aeV841RNkO-CWpU37b-w-70">
          <mxGeometry relative="1" as="geometry">
            <Array as="points">
              <mxPoint x="480" y="190" />
            </Array>
          </mxGeometry>
        </mxCell>
        <mxCell id="aeV841RNkO-CWpU37b-w-8" value="Valor do serviço" style="ellipse;whiteSpace=wrap;html=1;align=center;" vertex="1" parent="1">
          <mxGeometry x="343" y="170" width="100" height="40" as="geometry" />
        </mxCell>
        <mxCell id="aeV841RNkO-CWpU37b-w-64" style="edgeStyle=orthogonalEdgeStyle;rounded=0;orthogonalLoop=1;jettySize=auto;html=1;entryX=1;entryY=0.5;entryDx=0;entryDy=0;" edge="1" parent="1" source="aeV841RNkO-CWpU37b-w-10" target="aeV841RNkO-CWpU37b-w-53">
          <mxGeometry relative="1" as="geometry">
            <Array as="points">
              <mxPoint x="1221" y="410" />
            </Array>
          </mxGeometry>
        </mxCell>
        <mxCell id="aeV841RNkO-CWpU37b-w-10" value="Tabela de mão de obra" style="ellipse;whiteSpace=wrap;html=1;align=center;" vertex="1" parent="1">
          <mxGeometry x="1166" y="450" width="110" height="50" as="geometry" />
        </mxCell>
        <mxCell id="aeV841RNkO-CWpU37b-w-63" style="edgeStyle=orthogonalEdgeStyle;rounded=0;orthogonalLoop=1;jettySize=auto;html=1;entryX=1;entryY=0.5;entryDx=0;entryDy=0;" edge="1" parent="1" source="aeV841RNkO-CWpU37b-w-11" target="aeV841RNkO-CWpU37b-w-53">
          <mxGeometry relative="1" as="geometry" />
        </mxCell>
        <mxCell id="aeV841RNkO-CWpU37b-w-11" value="Valor das peças" style="ellipse;whiteSpace=wrap;html=1;align=center;" vertex="1" parent="1">
          <mxGeometry x="1290" y="390" width="100" height="40" as="geometry" />
        </mxCell>
        <mxCell id="aeV841RNkO-CWpU37b-w-33" style="edgeStyle=orthogonalEdgeStyle;rounded=0;orthogonalLoop=1;jettySize=auto;html=1;" edge="1" parent="1" source="aeV841RNkO-CWpU37b-w-12">
          <mxGeometry relative="1" as="geometry">
            <mxPoint x="150" y="390" as="targetPoint" />
          </mxGeometry>
        </mxCell>
        <mxCell id="aeV841RNkO-CWpU37b-w-12" value="Carro" style="ellipse;whiteSpace=wrap;html=1;align=center;" vertex="1" parent="1">
          <mxGeometry x="20" y="320" width="100" height="40" as="geometry" />
        </mxCell>
        <mxCell id="aeV841RNkO-CWpU37b-w-73" style="edgeStyle=orthogonalEdgeStyle;rounded=0;orthogonalLoop=1;jettySize=auto;html=1;entryX=0.5;entryY=0;entryDx=0;entryDy=0;" edge="1" parent="1" source="aeV841RNkO-CWpU37b-w-14" target="aeV841RNkO-CWpU37b-w-70">
          <mxGeometry relative="1" as="geometry">
            <mxPoint x="500" y="230" as="targetPoint" />
            <Array as="points">
              <mxPoint x="480" y="90" />
            </Array>
          </mxGeometry>
        </mxCell>
        <mxCell id="aeV841RNkO-CWpU37b-w-14" value="código" style="ellipse;whiteSpace=wrap;html=1;align=center;" vertex="1" parent="1">
          <mxGeometry x="518" y="70" width="100" height="40" as="geometry" />
        </mxCell>
        <mxCell id="aeV841RNkO-CWpU37b-w-49" style="edgeStyle=orthogonalEdgeStyle;rounded=0;orthogonalLoop=1;jettySize=auto;html=1;" edge="1" parent="1" source="aeV841RNkO-CWpU37b-w-15">
          <mxGeometry relative="1" as="geometry">
            <mxPoint x="820" y="390" as="targetPoint" />
          </mxGeometry>
        </mxCell>
        <mxCell id="aeV841RNkO-CWpU37b-w-15" value="nome" style="ellipse;whiteSpace=wrap;html=1;align=center;" vertex="1" parent="1">
          <mxGeometry x="690" y="330" width="100" height="40" as="geometry" />
        </mxCell>
        <mxCell id="aeV841RNkO-CWpU37b-w-48" style="edgeStyle=orthogonalEdgeStyle;rounded=0;orthogonalLoop=1;jettySize=auto;html=1;entryX=0.5;entryY=0;entryDx=0;entryDy=0;" edge="1" parent="1" source="aeV841RNkO-CWpU37b-w-16" target="aeV841RNkO-CWpU37b-w-6">
          <mxGeometry relative="1" as="geometry" />
        </mxCell>
        <mxCell id="aeV841RNkO-CWpU37b-w-16" value="endereço" style="ellipse;whiteSpace=wrap;html=1;align=center;" vertex="1" parent="1">
          <mxGeometry x="770" y="280" width="100" height="40" as="geometry" />
        </mxCell>
        <mxCell id="aeV841RNkO-CWpU37b-w-50" style="edgeStyle=orthogonalEdgeStyle;rounded=0;orthogonalLoop=1;jettySize=auto;html=1;" edge="1" parent="1" source="aeV841RNkO-CWpU37b-w-17">
          <mxGeometry relative="1" as="geometry">
            <mxPoint x="820" y="390" as="targetPoint" />
          </mxGeometry>
        </mxCell>
        <mxCell id="aeV841RNkO-CWpU37b-w-17" value="especialidade" style="ellipse;whiteSpace=wrap;html=1;align=center;" vertex="1" parent="1">
          <mxGeometry x="850" y="330" width="100" height="40" as="geometry" />
        </mxCell>
        <mxCell id="aeV841RNkO-CWpU37b-w-77" style="edgeStyle=orthogonalEdgeStyle;rounded=0;orthogonalLoop=1;jettySize=auto;html=1;entryX=0.5;entryY=0;entryDx=0;entryDy=0;" edge="1" parent="1" source="aeV841RNkO-CWpU37b-w-18" target="aeV841RNkO-CWpU37b-w-70">
          <mxGeometry relative="1" as="geometry">
            <Array as="points">
              <mxPoint x="480" y="140" />
            </Array>
          </mxGeometry>
        </mxCell>
        <mxCell id="aeV841RNkO-CWpU37b-w-18" value="N°" style="ellipse;whiteSpace=wrap;html=1;align=center;" vertex="1" parent="1">
          <mxGeometry x="343" y="120" width="100" height="40" as="geometry" />
        </mxCell>
        <mxCell id="aeV841RNkO-CWpU37b-w-75" style="edgeStyle=orthogonalEdgeStyle;rounded=0;orthogonalLoop=1;jettySize=auto;html=1;entryX=0.5;entryY=0;entryDx=0;entryDy=0;" edge="1" parent="1" source="aeV841RNkO-CWpU37b-w-19" target="aeV841RNkO-CWpU37b-w-70">
          <mxGeometry relative="1" as="geometry">
            <Array as="points">
              <mxPoint x="480" y="190" />
            </Array>
          </mxGeometry>
        </mxCell>
        <mxCell id="aeV841RNkO-CWpU37b-w-19" value="Data de emissão" style="ellipse;whiteSpace=wrap;html=1;align=center;" vertex="1" parent="1">
          <mxGeometry x="518" y="170" width="100" height="40" as="geometry" />
        </mxCell>
        <mxCell id="aeV841RNkO-CWpU37b-w-78" style="edgeStyle=orthogonalEdgeStyle;rounded=0;orthogonalLoop=1;jettySize=auto;html=1;entryX=0.5;entryY=0;entryDx=0;entryDy=0;" edge="1" parent="1" source="aeV841RNkO-CWpU37b-w-20" target="aeV841RNkO-CWpU37b-w-70">
          <mxGeometry relative="1" as="geometry">
            <Array as="points">
              <mxPoint x="480" y="90" />
            </Array>
          </mxGeometry>
        </mxCell>
        <mxCell id="aeV841RNkO-CWpU37b-w-20" value="endereço" style="ellipse;whiteSpace=wrap;html=1;align=center;" vertex="1" parent="1">
          <mxGeometry x="343" y="70" width="100" height="40" as="geometry" />
        </mxCell>
        <mxCell id="aeV841RNkO-CWpU37b-w-79" style="edgeStyle=orthogonalEdgeStyle;rounded=0;orthogonalLoop=1;jettySize=auto;html=1;entryX=0.5;entryY=0;entryDx=0;entryDy=0;" edge="1" parent="1" source="aeV841RNkO-CWpU37b-w-21" target="aeV841RNkO-CWpU37b-w-70">
          <mxGeometry relative="1" as="geometry" />
        </mxCell>
        <mxCell id="aeV841RNkO-CWpU37b-w-21" value="Status" style="ellipse;whiteSpace=wrap;html=1;align=center;" vertex="1" parent="1">
          <mxGeometry x="430" y="20" width="100" height="40" as="geometry" />
        </mxCell>
        <mxCell id="aeV841RNkO-CWpU37b-w-39" style="edgeStyle=orthogonalEdgeStyle;rounded=0;orthogonalLoop=1;jettySize=auto;html=1;exitX=1;exitY=0.5;exitDx=0;exitDy=0;entryX=0;entryY=0.5;entryDx=0;entryDy=0;" edge="1" parent="1" source="aeV841RNkO-CWpU37b-w-24" target="aeV841RNkO-CWpU37b-w-88">
          <mxGeometry relative="1" as="geometry">
            <mxPoint x="320" y="540" as="targetPoint" />
          </mxGeometry>
        </mxCell>
        <mxCell id="aeV841RNkO-CWpU37b-w-24" value="Sim" style="shape=rhombus;perimeter=rhombusPerimeter;whiteSpace=wrap;html=1;align=center;" vertex="1" parent="1">
          <mxGeometry x="243" y="545" width="60" height="30" as="geometry" />
        </mxCell>
        <mxCell id="aeV841RNkO-CWpU37b-w-44" style="edgeStyle=orthogonalEdgeStyle;rounded=0;orthogonalLoop=1;jettySize=auto;html=1;entryX=0.5;entryY=0;entryDx=0;entryDy=0;" edge="1" parent="1" source="aeV841RNkO-CWpU37b-w-25" target="aeV841RNkO-CWpU37b-w-3">
          <mxGeometry relative="1" as="geometry" />
        </mxCell>
        <mxCell id="aeV841RNkO-CWpU37b-w-25" value="Não" style="shape=rhombus;perimeter=rhombusPerimeter;whiteSpace=wrap;html=1;align=center;" vertex="1" parent="1">
          <mxGeometry x="120" y="630" width="60" height="30" as="geometry" />
        </mxCell>
        <mxCell id="aeV841RNkO-CWpU37b-w-35" style="edgeStyle=orthogonalEdgeStyle;rounded=0;orthogonalLoop=1;jettySize=auto;html=1;entryX=0;entryY=0.5;entryDx=0;entryDy=0;" edge="1" parent="1" source="aeV841RNkO-CWpU37b-w-27" target="aeV841RNkO-CWpU37b-w-1">
          <mxGeometry relative="1" as="geometry" />
        </mxCell>
        <mxCell id="aeV841RNkO-CWpU37b-w-87" style="edgeStyle=orthogonalEdgeStyle;rounded=0;orthogonalLoop=1;jettySize=auto;html=1;entryX=0.5;entryY=0;entryDx=0;entryDy=0;" edge="1" parent="1" source="aeV841RNkO-CWpU37b-w-27" target="aeV841RNkO-CWpU37b-w-28">
          <mxGeometry relative="1" as="geometry" />
        </mxCell>
        <mxCell id="aeV841RNkO-CWpU37b-w-27" value="Cliente" style="whiteSpace=wrap;html=1;align=center;" vertex="1" parent="1">
          <mxGeometry x="100" y="390" width="100" height="40" as="geometry" />
        </mxCell>
        <mxCell id="aeV841RNkO-CWpU37b-w-28" value="Confirma" style="whiteSpace=wrap;html=1;align=center;" vertex="1" parent="1">
          <mxGeometry x="100" y="540" width="100" height="40" as="geometry" />
        </mxCell>
        <mxCell id="aeV841RNkO-CWpU37b-w-31" style="edgeStyle=orthogonalEdgeStyle;rounded=0;orthogonalLoop=1;jettySize=auto;html=1;entryX=0.5;entryY=0;entryDx=0;entryDy=0;" edge="1" parent="1" source="aeV841RNkO-CWpU37b-w-29" target="aeV841RNkO-CWpU37b-w-27">
          <mxGeometry relative="1" as="geometry">
            <Array as="points">
              <mxPoint x="150" y="280" />
            </Array>
          </mxGeometry>
        </mxCell>
        <mxCell id="aeV841RNkO-CWpU37b-w-29" value="nome" style="ellipse;whiteSpace=wrap;html=1;align=center;" vertex="1" parent="1">
          <mxGeometry x="100" y="260" width="100" height="40" as="geometry" />
        </mxCell>
        <mxCell id="aeV841RNkO-CWpU37b-w-32" style="edgeStyle=orthogonalEdgeStyle;rounded=0;orthogonalLoop=1;jettySize=auto;html=1;" edge="1" parent="1" source="aeV841RNkO-CWpU37b-w-30">
          <mxGeometry relative="1" as="geometry">
            <mxPoint x="150" y="390" as="targetPoint" />
          </mxGeometry>
        </mxCell>
        <mxCell id="aeV841RNkO-CWpU37b-w-30" value="endereço" style="ellipse;whiteSpace=wrap;html=1;align=center;" vertex="1" parent="1">
          <mxGeometry x="180" y="320" width="100" height="40" as="geometry" />
        </mxCell>
        <mxCell id="aeV841RNkO-CWpU37b-w-34" value="Inicio do pedido" style="shape=rhombus;perimeter=rhombusPerimeter;whiteSpace=wrap;html=1;align=center;" vertex="1" parent="1">
          <mxGeometry x="260" y="385" width="110" height="50" as="geometry" />
        </mxCell>
        <mxCell id="aeV841RNkO-CWpU37b-w-36" value="N" style="text;strokeColor=none;fillColor=none;spacingLeft=4;spacingRight=4;overflow=hidden;rotatable=0;points=[[0,0.5],[1,0.5]];portConstraint=eastwest;fontSize=12;whiteSpace=wrap;html=1;" vertex="1" parent="1">
          <mxGeometry x="200" y="390" width="40" height="30" as="geometry" />
        </mxCell>
        <mxCell id="aeV841RNkO-CWpU37b-w-37" value="1" style="text;strokeColor=none;fillColor=none;spacingLeft=4;spacingRight=4;overflow=hidden;rotatable=0;points=[[0,0.5],[1,0.5]];portConstraint=eastwest;fontSize=12;whiteSpace=wrap;html=1;" vertex="1" parent="1">
          <mxGeometry x="403" y="390" width="40" height="30" as="geometry" />
        </mxCell>
        <mxCell id="aeV841RNkO-CWpU37b-w-42" value="" style="endArrow=none;html=1;rounded=0;exitX=1;exitY=0.5;exitDx=0;exitDy=0;entryX=0;entryY=0.5;entryDx=0;entryDy=0;" edge="1" parent="1" source="aeV841RNkO-CWpU37b-w-28" target="aeV841RNkO-CWpU37b-w-24">
          <mxGeometry relative="1" as="geometry">
            <mxPoint x="200" y="580" as="sourcePoint" />
            <mxPoint x="360" y="580" as="targetPoint" />
          </mxGeometry>
        </mxCell>
        <mxCell id="aeV841RNkO-CWpU37b-w-45" value="" style="endArrow=none;html=1;rounded=0;exitX=0.5;exitY=1;exitDx=0;exitDy=0;entryX=0.5;entryY=0;entryDx=0;entryDy=0;" edge="1" parent="1" source="aeV841RNkO-CWpU37b-w-28" target="aeV841RNkO-CWpU37b-w-25">
          <mxGeometry relative="1" as="geometry">
            <mxPoint x="200" y="680" as="sourcePoint" />
            <mxPoint x="360" y="680" as="targetPoint" />
          </mxGeometry>
        </mxCell>
        <mxCell id="aeV841RNkO-CWpU37b-w-65" style="edgeStyle=orthogonalEdgeStyle;rounded=0;orthogonalLoop=1;jettySize=auto;html=1;entryX=1;entryY=0.5;entryDx=0;entryDy=0;" edge="1" parent="1" source="aeV841RNkO-CWpU37b-w-46" target="aeV841RNkO-CWpU37b-w-53">
          <mxGeometry relative="1" as="geometry">
            <Array as="points">
              <mxPoint x="1221" y="410" />
            </Array>
          </mxGeometry>
        </mxCell>
        <mxCell id="aeV841RNkO-CWpU37b-w-46" value="Tipo de serviço" style="ellipse;whiteSpace=wrap;html=1;align=center;" vertex="1" parent="1">
          <mxGeometry x="1171" y="325" width="100" height="40" as="geometry" />
        </mxCell>
        <mxCell id="aeV841RNkO-CWpU37b-w-51" value="Contata" style="shape=rhombus;perimeter=rhombusPerimeter;whiteSpace=wrap;html=1;align=center;" vertex="1" parent="1">
          <mxGeometry x="598" y="390" width="92" height="40" as="geometry" />
        </mxCell>
        <mxCell id="aeV841RNkO-CWpU37b-w-67" style="edgeStyle=orthogonalEdgeStyle;rounded=0;orthogonalLoop=1;jettySize=auto;html=1;entryX=1;entryY=0.5;entryDx=0;entryDy=0;" edge="1" parent="1" source="aeV841RNkO-CWpU37b-w-53" target="aeV841RNkO-CWpU37b-w-6">
          <mxGeometry relative="1" as="geometry" />
        </mxCell>
        <mxCell id="aeV841RNkO-CWpU37b-w-53" value="Avaliação" style="whiteSpace=wrap;html=1;align=center;" vertex="1" parent="1">
          <mxGeometry x="1030" y="390" width="100" height="40" as="geometry" />
        </mxCell>
        <mxCell id="aeV841RNkO-CWpU37b-w-54" value="1" style="text;strokeColor=none;fillColor=none;spacingLeft=4;spacingRight=4;overflow=hidden;rotatable=0;points=[[0,0.5],[1,0.5]];portConstraint=eastwest;fontSize=12;whiteSpace=wrap;html=1;" vertex="1" parent="1">
          <mxGeometry x="530" y="390" width="40" height="30" as="geometry" />
        </mxCell>
        <mxCell id="aeV841RNkO-CWpU37b-w-55" value="N" style="text;strokeColor=none;fillColor=none;spacingLeft=4;spacingRight=4;overflow=hidden;rotatable=0;points=[[0,0.5],[1,0.5]];portConstraint=eastwest;fontSize=12;whiteSpace=wrap;html=1;" vertex="1" parent="1">
          <mxGeometry x="740" y="390" width="40" height="30" as="geometry" />
        </mxCell>
        <mxCell id="aeV841RNkO-CWpU37b-w-60" style="edgeStyle=orthogonalEdgeStyle;rounded=0;orthogonalLoop=1;jettySize=auto;html=1;entryX=0.5;entryY=0;entryDx=0;entryDy=0;" edge="1" parent="1" source="aeV841RNkO-CWpU37b-w-57" target="aeV841RNkO-CWpU37b-w-46">
          <mxGeometry relative="1" as="geometry">
            <Array as="points">
              <mxPoint x="1221" y="265" />
            </Array>
          </mxGeometry>
        </mxCell>
        <mxCell id="aeV841RNkO-CWpU37b-w-57" value="Revisão" style="ellipse;whiteSpace=wrap;html=1;align=center;" vertex="1" parent="1">
          <mxGeometry x="1100" y="245" width="100" height="40" as="geometry" />
        </mxCell>
        <mxCell id="aeV841RNkO-CWpU37b-w-59" style="edgeStyle=orthogonalEdgeStyle;rounded=0;orthogonalLoop=1;jettySize=auto;html=1;entryX=0.5;entryY=0;entryDx=0;entryDy=0;exitX=0;exitY=0.5;exitDx=0;exitDy=0;" edge="1" parent="1" source="aeV841RNkO-CWpU37b-w-58" target="aeV841RNkO-CWpU37b-w-46">
          <mxGeometry relative="1" as="geometry">
            <Array as="points">
              <mxPoint x="1221" y="265" />
            </Array>
          </mxGeometry>
        </mxCell>
        <mxCell id="aeV841RNkO-CWpU37b-w-58" value="Concerto" style="ellipse;whiteSpace=wrap;html=1;align=center;" vertex="1" parent="1">
          <mxGeometry x="1240" y="245" width="100" height="40" as="geometry" />
        </mxCell>
        <mxCell id="aeV841RNkO-CWpU37b-w-61" value="N" style="text;strokeColor=none;fillColor=none;spacingLeft=4;spacingRight=4;overflow=hidden;rotatable=0;points=[[0,0.5],[1,0.5]];portConstraint=eastwest;fontSize=12;whiteSpace=wrap;html=1;" vertex="1" parent="1">
          <mxGeometry x="1220" y="300" width="40" height="30" as="geometry" />
        </mxCell>
        <mxCell id="aeV841RNkO-CWpU37b-w-62" value="1" style="text;strokeColor=none;fillColor=none;spacingLeft=4;spacingRight=4;overflow=hidden;rotatable=0;points=[[0,0.5],[1,0.5]];portConstraint=eastwest;fontSize=12;whiteSpace=wrap;html=1;" vertex="1" parent="1">
          <mxGeometry x="1210" y="240" width="40" height="30" as="geometry" />
        </mxCell>
        <mxCell id="aeV841RNkO-CWpU37b-w-69" value="Após a avaliação" style="shape=rhombus;perimeter=rhombusPerimeter;whiteSpace=wrap;html=1;align=center;" vertex="1" parent="1">
          <mxGeometry x="588" y="440" width="112" height="60" as="geometry" />
        </mxCell>
        <mxCell id="aeV841RNkO-CWpU37b-w-70" value="Pedido" style="whiteSpace=wrap;html=1;align=center;" vertex="1" parent="1">
          <mxGeometry x="430" y="245" width="100" height="40" as="geometry" />
        </mxCell>
        <mxCell id="aeV841RNkO-CWpU37b-w-72" value="Cria" style="shape=rhombus;perimeter=rhombusPerimeter;whiteSpace=wrap;html=1;align=center;" vertex="1" parent="1">
          <mxGeometry x="442" y="325" width="76" height="30" as="geometry" />
        </mxCell>
        <mxCell id="aeV841RNkO-CWpU37b-w-82" value="O processo de atualizar o pedido ocorre duas vezes uma no inicio e outra após a avaliação." style="shape=note;size=20;whiteSpace=wrap;html=1;" vertex="1" parent="1">
          <mxGeometry x="680" y="80" width="120" height="120" as="geometry" />
        </mxCell>
        <mxCell id="aeV841RNkO-CWpU37b-w-86" value="Contata" style="shape=rhombus;perimeter=rhombusPerimeter;whiteSpace=wrap;html=1;align=center;" vertex="1" parent="1">
          <mxGeometry x="260" y="460" width="92" height="40" as="geometry" />
        </mxCell>
        <mxCell id="aeV841RNkO-CWpU37b-w-88" value="Inicio do trabalho" style="whiteSpace=wrap;html=1;align=center;" vertex="1" parent="1">
          <mxGeometry x="343.5" y="540" width="100" height="40" as="geometry" />
        </mxCell>
        <mxCell id="aeV841RNkO-CWpU37b-w-93" value="Após a confirmação do cliente o sistema contata a equipe que já avaliou e autoriza o inicio do trabalho e com o passar do tempo o status é atualizado até o período de entrega do carro." style="shape=note;size=20;whiteSpace=wrap;html=1;" vertex="1" parent="1">
          <mxGeometry x="315" y="630" width="157" height="150" as="geometry" />
        </mxCell>
      </root>
    </mxGraphModel>
  </diagram>
</mxfile>
